<svg width="82" height="76" viewBox="0 0 82 76" fill="none" xmlns="http://www.w3.org/2000/svg">
<path d="M66.1 75.5625C71.0408 70.6355 74.9591 64.7806 77.6299 58.3343C80.3006 51.8881 81.6711 44.9776 81.6625 38C81.6711 31.0224 80.3006 24.1119 77.6299 17.6657C74.9591 11.2194 71.0408 5.36455 66.1 0.4375L61.675 4.85625C66.0346 9.20369 69.4919 14.3698 71.8484 20.0578C74.2049 25.7457 75.414 31.8433 75.4063 38C75.4063 50.9438 70.1563 62.6625 61.675 71.1438L66.1 75.5625V75.5625Z" fill="black"/>
<path d="M57.2562 66.725C61.0342 62.957 64.0303 58.4795 66.0725 53.5499C68.1147 48.6204 69.1627 43.3358 69.1562 38C69.1627 32.6641 68.1147 27.3796 66.0725 22.45C64.0303 17.5205 61.0342 13.043 57.2562 9.27499L52.8374 13.6937C56.0342 16.8822 58.5693 20.6709 60.2973 24.8421C62.0252 29.0134 62.9118 33.485 62.9062 38C62.9135 42.5156 62.0282 46.9881 60.3014 51.1605C58.5745 55.3329 56.04 59.1228 52.8437 62.3125L57.2562 66.725Z" fill="black"/>
<path d="M56.6562 38C56.6611 41.6941 55.9358 45.3528 54.5221 48.7658C53.1085 52.1787 51.0343 55.2787 48.4187 57.8875L44 53.4687C46.0343 51.4396 47.6475 49.0284 48.7469 46.3737C49.8463 43.719 50.4102 40.8733 50.4062 38C50.4062 31.9625 47.9563 26.4937 44 22.5312L48.4187 18.1125C51.0343 20.7213 53.1085 23.8212 54.5221 27.2342C55.9358 30.6472 56.6611 34.3058 56.6562 38V38ZM37.75 13C37.7492 12.412 37.5824 11.8361 37.269 11.3386C36.9555 10.8411 36.508 10.4421 35.978 10.1875C35.4479 9.93292 34.8568 9.83306 34.2725 9.89939C33.6882 9.96572 33.1345 10.1956 32.675 10.5625L17.9063 22.375H3.375C2.5462 22.375 1.75134 22.7042 1.16529 23.2903C0.57924 23.8763 0.25 24.6712 0.25 25.5V50.5C0.25 51.3288 0.57924 52.1237 1.16529 52.7097C1.75134 53.2958 2.5462 53.625 3.375 53.625H17.9063L32.675 65.4375C33.1345 65.8044 33.6882 66.0343 34.2725 66.1006C34.8568 66.1669 35.4479 66.0671 35.978 65.8125C36.508 65.5579 36.9555 65.1589 37.269 64.6614C37.5824 64.1639 37.7492 63.588 37.75 63V13ZM20.95 27.9375L31.5 19.5V56.5L20.95 48.0625C20.3968 47.6187 19.7092 47.3763 19 47.375H6.5V28.625H19C19.7092 28.6237 20.3968 28.3813 20.95 27.9375V27.9375Z" fill="black"/>
</svg>
